<svg xmlns="http://www.w3.org/2000/svg" width="800" height="1000" viewBox="0 0 800 1000">
  <defs>
    <linearGradient id="bg" x1="0" y1="0" x2="1" y2="1">
      <stop offset="0%" stop-color="#be123c" />
      <stop offset="100%" stop-color="#9f1239" />
    </linearGradient>
  </defs>
  <rect width="800" height="1000" rx="36" fill="url(#bg)" />
  <circle cx="630" cy="190" r="110" fill="rgba(255,255,255,0.12)" />
  <circle cx="170" cy="830" r="190" fill="rgba(255,255,255,0.08)" />
  <path d="M250 430 C250 350 310 290 400 290 C490 290 550 350 550 430 L550 470 C530 500 470 520 400 520 C330 520 270 500 250 470 Z" fill="#fff1f2" opacity="0.95" />
  <path d="M280 415 C340 385 460 385 520 415" fill="none" stroke="#9f1239" stroke-width="14" stroke-linecap="round" opacity="0.7" />
  <path d="M515 465 L610 495 C625 500 628 520 614 528 L528 560" fill="none" stroke="#fff1f2" stroke-width="18" stroke-linecap="round" stroke-linejoin="round" />
  <text x="400" y="760" text-anchor="middle" font-family="Arial, Helvetica, sans-serif" font-size="52" font-weight="700" fill="#ffffff">Classic Cap</text>
  <text x="400" y="810" text-anchor="middle" font-family="Arial, Helvetica, sans-serif" font-size="22" fill="#ffffff" opacity="0.85">Streetwear accessory</text>
</svg>
