<svg xmlns="http://www.w3.org/2000/svg" width="800" height="1000" viewBox="0 0 800 1000">
  <defs>
    <linearGradient id="bg" x1="0" y1="0" x2="1" y2="1">
      <stop offset="0%" stop-color="#6b7280" />
      <stop offset="100%" stop-color="#374151" />
    </linearGradient>
  </defs>
  <rect width="800" height="1000" rx="36" fill="url(#bg)" />
  <circle cx="640" cy="170" r="120" fill="rgba(255,255,255,0.12)" />
  <circle cx="160" cy="820" r="190" fill="rgba(255,255,255,0.08)" />
  <path d="M285 250 L355 205 L400 255 L445 205 L515 250 L560 345 L520 370 L520 700 L280 700 L280 370 L240 345 Z" fill="#dbe4f0" opacity="0.14" />
  <path d="M345 205 L400 255 L455 205" fill="none" stroke="#f8fafc" stroke-width="18" stroke-linecap="round" stroke-linejoin="round" />
  <path d="M280 370 L215 470 L255 510 L300 445" fill="none" stroke="#f8fafc" stroke-width="18" stroke-linecap="round" stroke-linejoin="round" />
  <path d="M520 370 L585 470 L545 510 L500 445" fill="none" stroke="#f8fafc" stroke-width="18" stroke-linecap="round" stroke-linejoin="round" />
  <rect x="325" y="395" width="150" height="250" rx="18" fill="rgba(255,255,255,0.08)" />
  <line x1="400" y1="310" x2="400" y2="660" stroke="rgba(255,255,255,0.22)" stroke-width="8" stroke-linecap="round" />
  <circle cx="400" cy="430" r="10" fill="#f8fafc" />
  <circle cx="400" cy="500" r="10" fill="#f8fafc" />
  <circle cx="400" cy="570" r="10" fill="#f8fafc" />
  <text x="400" y="760" text-anchor="middle" font-family="Arial, Helvetica, sans-serif" font-size="52" font-weight="700" fill="#ffffff">Classic Denim Jacket</text>
  <text x="400" y="810" text-anchor="middle" font-family="Arial, Helvetica, sans-serif" font-size="22" fill="#ffffff" opacity="0.85">Premium outerwear</text>
</svg>
